<svg xmlns="http://www.w3.org/2000/svg" viewBox="0 0 159.39 159.39"><defs><style>.cls-1{fill:#ff164d;}.cls-2{fill:#fff;}</style></defs><g id="Layer_2" data-name="Layer 2"><g id="Layer_1-2" data-name="Layer 1"><circle class="cls-1" cx="79.7" cy="79.7" r="79.7"/><path class="cls-2" d="M76.27,77C85.19,73.49,92.7,66.52,92.7,58.25c0-7.51-4.57-13.06-12.84-13.06-8.06,0-13.94,5.44-14.48,15.24l-7.62-1.64c1-12.84,9.69-21.33,22.43-21.33,13.28,0,21.44,8.49,21.44,20.46,0,10.78-7.95,18.51-16.65,22.86V95.59H76.27Zm-1.64,39a5.94,5.94,0,1,1,6,6A6,6,0,0,1,74.63,116Z"/></g></g></svg>