<svg xmlns="http://www.w3.org/2000/svg" viewBox="0 0 159.39 159.39"><defs><style>.cls-1{fill:#ff164d;}.cls-2{fill:#fff;}</style></defs><g id="Layer_2" data-name="Layer 2"><g id="Layer_1-2" data-name="Layer 1"><circle class="cls-1" cx="79.7" cy="79.7" r="79.7"/><path class="cls-2" d="M39.08,66.29H54.13v3.36H42.93V77.6h10.5v3.32H42.93v8.23H54.31v3.39H39.08Z"/><path class="cls-2" d="M73.38,74.48V92.54H69.6V77.77H62.11V92.54H58.33V74.48Z"/><path class="cls-2" d="M79.26,77.77H77.33V74.48h1.93V69.79H83v4.69h4.9v3.29H83V89.22h4.37v3.32H79.26Z"/><path class="cls-2" d="M99.38,93.1a9.59,9.59,0,0,1-.07-19.18c5.29,0,8.9,4.06,8.9,9.59a8.36,8.36,0,0,1-.11,1.37H93.71a5.47,5.47,0,0,0,5.71,4.83,6.07,6.07,0,0,0,5.14-2.45l2.21,2.27A8.81,8.81,0,0,1,99.38,93.1ZM93.71,82.15h10.75a5.12,5.12,0,0,0-5.22-4.9A5.42,5.42,0,0,0,93.71,82.15Z"/><path class="cls-2" d="M120.31,74.48v3.36h-4.58v14.7H112V74.48Z"/></g></g></svg>